<mxfile host="app.diagrams.net" modified="2021-10-21T03:34:24.079Z" agent="5.0 (Windows NT 10.0; Win64; x64) AppleWebKit/537.36 (KHTML, like Gecko) Chrome/94.0.4606.81 Safari/537.36 Edg/94.0.992.50" etag="aHXea3jJcBrkd38TvaSg" version="15.5.6" type="github">
  <diagram id="NZkhq0uwtYKVk7PtK8mP" name="Page-1">
    <mxGraphModel dx="1690" dy="1140" grid="1" gridSize="10" guides="1" tooltips="1" connect="1" arrows="1" fold="1" page="1" pageScale="1" pageWidth="850" pageHeight="1100" math="0" shadow="0">
      <root>
        <mxCell id="0" />
        <mxCell id="1" parent="0" />
        <mxCell id="AtrSWCnujHt8_I5vI0Te-19" style="edgeStyle=orthogonalEdgeStyle;rounded=0;orthogonalLoop=1;jettySize=auto;html=1;entryX=0.5;entryY=0;entryDx=0;entryDy=0;" edge="1" parent="1" source="AtrSWCnujHt8_I5vI0Te-1" target="AtrSWCnujHt8_I5vI0Te-2">
          <mxGeometry relative="1" as="geometry" />
        </mxCell>
        <mxCell id="AtrSWCnujHt8_I5vI0Te-1" value="if token expired" style="rounded=0;whiteSpace=wrap;html=1;" vertex="1" parent="1">
          <mxGeometry x="305" y="150" width="120" height="70" as="geometry" />
        </mxCell>
        <mxCell id="AtrSWCnujHt8_I5vI0Te-6" style="edgeStyle=orthogonalEdgeStyle;rounded=0;orthogonalLoop=1;jettySize=auto;html=1;exitX=0.5;exitY=1;exitDx=0;exitDy=0;entryX=0.5;entryY=0;entryDx=0;entryDy=0;" edge="1" parent="1" source="AtrSWCnujHt8_I5vI0Te-2" target="AtrSWCnujHt8_I5vI0Te-3">
          <mxGeometry relative="1" as="geometry" />
        </mxCell>
        <mxCell id="AtrSWCnujHt8_I5vI0Te-8" style="edgeStyle=orthogonalEdgeStyle;rounded=0;orthogonalLoop=1;jettySize=auto;html=1;exitX=0.75;exitY=1;exitDx=0;exitDy=0;entryX=0.5;entryY=0;entryDx=0;entryDy=0;" edge="1" parent="1" source="AtrSWCnujHt8_I5vI0Te-2" target="AtrSWCnujHt8_I5vI0Te-4">
          <mxGeometry relative="1" as="geometry" />
        </mxCell>
        <mxCell id="AtrSWCnujHt8_I5vI0Te-2" value="pop token from redis" style="rounded=0;whiteSpace=wrap;html=1;" vertex="1" parent="1">
          <mxGeometry x="305" y="270" width="120" height="60" as="geometry" />
        </mxCell>
        <mxCell id="AtrSWCnujHt8_I5vI0Te-3" value="wait until get token" style="rounded=0;whiteSpace=wrap;html=1;" vertex="1" parent="1">
          <mxGeometry x="200" y="400" width="120" height="60" as="geometry" />
        </mxCell>
        <mxCell id="AtrSWCnujHt8_I5vI0Te-10" style="edgeStyle=orthogonalEdgeStyle;rounded=0;orthogonalLoop=1;jettySize=auto;html=1;" edge="1" parent="1" source="AtrSWCnujHt8_I5vI0Te-4" target="AtrSWCnujHt8_I5vI0Te-11">
          <mxGeometry relative="1" as="geometry">
            <mxPoint x="450" y="500" as="targetPoint" />
          </mxGeometry>
        </mxCell>
        <mxCell id="AtrSWCnujHt8_I5vI0Te-17" style="edgeStyle=orthogonalEdgeStyle;rounded=0;orthogonalLoop=1;jettySize=auto;html=1;exitX=0.5;exitY=1;exitDx=0;exitDy=0;entryX=0.5;entryY=0;entryDx=0;entryDy=0;" edge="1" parent="1" source="AtrSWCnujHt8_I5vI0Te-4" target="AtrSWCnujHt8_I5vI0Te-13">
          <mxGeometry relative="1" as="geometry" />
        </mxCell>
        <mxCell id="AtrSWCnujHt8_I5vI0Te-4" value="check if get token eq old token&amp;nbsp;" style="rounded=0;whiteSpace=wrap;html=1;" vertex="1" parent="1">
          <mxGeometry x="470" y="400" width="120" height="60" as="geometry" />
        </mxCell>
        <mxCell id="AtrSWCnujHt8_I5vI0Te-7" value="get token == None" style="text;html=1;align=center;verticalAlign=middle;resizable=0;points=[];autosize=1;strokeColor=none;fillColor=none;" vertex="1" parent="1">
          <mxGeometry x="205" y="340" width="110" height="20" as="geometry" />
        </mxCell>
        <mxCell id="AtrSWCnujHt8_I5vI0Te-9" value="get token != none" style="text;html=1;align=center;verticalAlign=middle;resizable=0;points=[];autosize=1;strokeColor=none;fillColor=none;" vertex="1" parent="1">
          <mxGeometry x="435" y="340" width="110" height="20" as="geometry" />
        </mxCell>
        <mxCell id="AtrSWCnujHt8_I5vI0Te-16" style="edgeStyle=orthogonalEdgeStyle;rounded=0;orthogonalLoop=1;jettySize=auto;html=1;exitX=1;exitY=0.5;exitDx=0;exitDy=0;entryX=0;entryY=0.5;entryDx=0;entryDy=0;" edge="1" parent="1" source="AtrSWCnujHt8_I5vI0Te-11" target="AtrSWCnujHt8_I5vI0Te-13">
          <mxGeometry relative="1" as="geometry" />
        </mxCell>
        <mxCell id="AtrSWCnujHt8_I5vI0Te-11" value="refresh(get new token from identity)" style="rounded=0;whiteSpace=wrap;html=1;" vertex="1" parent="1">
          <mxGeometry x="390" y="530" width="120" height="60" as="geometry" />
        </mxCell>
        <mxCell id="AtrSWCnujHt8_I5vI0Te-12" value="yes" style="text;html=1;align=center;verticalAlign=middle;resizable=0;points=[];autosize=1;strokeColor=none;fillColor=none;" vertex="1" parent="1">
          <mxGeometry x="445" y="470" width="30" height="20" as="geometry" />
        </mxCell>
        <mxCell id="AtrSWCnujHt8_I5vI0Te-15" value="" style="edgeStyle=orthogonalEdgeStyle;rounded=0;orthogonalLoop=1;jettySize=auto;html=1;" edge="1" parent="1" source="AtrSWCnujHt8_I5vI0Te-13" target="AtrSWCnujHt8_I5vI0Te-14">
          <mxGeometry relative="1" as="geometry" />
        </mxCell>
        <mxCell id="AtrSWCnujHt8_I5vI0Te-13" value="update token" style="rounded=0;whiteSpace=wrap;html=1;" vertex="1" parent="1">
          <mxGeometry x="560" y="530" width="120" height="60" as="geometry" />
        </mxCell>
        <mxCell id="AtrSWCnujHt8_I5vI0Te-14" value="add to redis" style="rounded=0;whiteSpace=wrap;html=1;" vertex="1" parent="1">
          <mxGeometry x="560" y="670" width="120" height="60" as="geometry" />
        </mxCell>
        <mxCell id="AtrSWCnujHt8_I5vI0Te-18" value="No" style="text;html=1;align=center;verticalAlign=middle;resizable=0;points=[];autosize=1;strokeColor=none;fillColor=none;" vertex="1" parent="1">
          <mxGeometry x="570" y="470" width="30" height="20" as="geometry" />
        </mxCell>
      </root>
    </mxGraphModel>
  </diagram>
</mxfile>
